# xmcd
# Track frame offsets:
# 150
# 11867
# 22155
# 37322
# 51930
# 63042
# 78180
# 93280
# 104552
# 119612
# 133930
# 147675
# 163280
# 173610
# 186235
#
# Disc length: 2690 seconds
# Revision: 0
# Processed by: cddbd v1.4PL0 Copyright (c) Steve Scherf et al.
# Submitted via: VisiTrax 2.9.5.180 - For more info visit www.synapsa.com
#
DISCID=e00a800f
DTITLE=Derrick Mehaffey - All over again
DYEAR=1995
DGENRE=Irsk
TTITLE0=Stay out of my arms
TTITLE1=Second thoughts
TTITLE2=Holdin on ain't working out
TTITLE3=How long has it been
TTITLE4=If I had to do it all over again
TTITLE5=Sugar moon
TTITLE6=South of the border
TTITLE7=Old fashioned girl
TTITLE8=Drinking champagne
TTITLE9=Red sails in the sunset
TTITLE10=Lord walk with us the rest of the way
TTITLE11=What's going on in your world
TTITLE12=When God dips his love
TTITLE13=Harbour lights
TTITLE14=You look like an angel
EXTD=
EXTT0=
EXTT1=
EXTT2=
EXTT3=
EXTT4=
EXTT5=
EXTT6=
EXTT7=
EXTT8=
EXTT9=
EXTT10=
EXTT11=
EXTT12=
EXTT13=
EXTT14=
PLAYORDER=
